<svg width="720" height="209" viewBox="0 0 720 209" fill="none" xmlns="http://www.w3.org/2000/svg">
<path d="M47.8516 41.481C48.7874 41.481 49.8657 41.542 51.0864 41.6641C52.3478 41.7454 53.3651 41.8675 54.1382 42.0303L52.7344 59.4863C52.124 59.2829 51.2492 59.1405 50.1099 59.0591C49.0112 58.937 48.055 58.876 47.2412 58.876C44.8405 58.876 42.5008 59.1812 40.2222 59.7915C37.9842 60.4019 35.9701 61.3988 34.1797 62.7822C32.3893 64.125 30.9652 65.9154 29.9072 68.1533C28.89 70.3506 28.3813 73.0565 28.3813 76.271V111H9.76562V42.7627H23.8647L26.6113 54.2373H27.5269C28.8696 51.918 30.5379 49.8021 32.5317 47.8896C34.5662 45.9365 36.8652 44.3903 39.4287 43.251C42.0329 42.071 44.8405 41.481 47.8516 41.481ZM128.54 76.7593C128.54 82.4559 127.767 87.5015 126.221 91.896C124.715 96.2905 122.498 100.014 119.568 103.065C116.679 106.076 113.18 108.355 109.07 109.901C105.001 111.448 100.403 112.221 95.2759 112.221C90.4744 112.221 86.0596 111.448 82.0312 109.901C78.0436 108.355 74.5646 106.076 71.5942 103.065C68.6646 100.014 66.3859 96.2905 64.7583 91.896C63.1714 87.5015 62.3779 82.4559 62.3779 76.7593C62.3779 69.1909 63.7207 62.7822 66.4062 57.5332C69.0918 52.2842 72.9167 48.2965 77.8809 45.5703C82.8451 42.8441 88.7655 41.481 95.6421 41.481C102.03 41.481 107.686 42.8441 112.61 45.5703C117.574 48.2965 121.46 52.2842 124.268 57.5332C127.116 62.7822 128.54 69.1909 128.54 76.7593ZM81.3599 76.7593C81.3599 81.2352 81.8481 84.999 82.8247 88.0508C83.8013 91.1025 85.3271 93.4015 87.4023 94.9478C89.4775 96.494 92.1834 97.2671 95.52 97.2671C98.8159 97.2671 101.481 96.494 103.516 94.9478C105.591 93.4015 107.096 91.1025 108.032 88.0508C109.009 84.999 109.497 81.2352 109.497 76.7593C109.497 72.2427 109.009 68.4992 108.032 65.5288C107.096 62.5177 105.591 60.2594 103.516 58.7539C101.44 57.2484 98.7345 56.4956 95.3979 56.4956C90.4744 56.4956 86.8937 58.1842 84.6558 61.5615C82.4585 64.9388 81.3599 70.0047 81.3599 76.7593ZM205.933 76.7593C205.933 82.4559 205.16 87.5015 203.613 91.896C202.108 96.2905 199.89 100.014 196.96 103.065C194.071 106.076 190.572 108.355 186.462 109.901C182.393 111.448 177.795 112.221 172.668 112.221C167.867 112.221 163.452 111.448 159.424 109.901C155.436 108.355 151.957 106.076 148.987 103.065C146.057 100.014 143.778 96.2905 142.151 91.896C140.564 87.5015 139.771 82.4559 139.771 76.7593C139.771 69.1909 141.113 62.7822 143.799 57.5332C146.484 52.2842 150.309 48.2965 155.273 45.5703C160.238 42.8441 166.158 41.481 173.035 41.481C179.423 41.481 185.079 42.8441 190.002 45.5703C194.967 48.2965 198.853 52.2842 201.66 57.5332C204.508 62.7822 205.933 69.1909 205.933 76.7593ZM158.752 76.7593C158.752 81.2352 159.241 84.999 160.217 88.0508C161.194 91.1025 162.72 93.4015 164.795 94.9478C166.87 96.494 169.576 97.2671 172.913 97.2671C176.208 97.2671 178.874 96.494 180.908 94.9478C182.983 93.4015 184.489 91.1025 185.425 88.0508C186.401 84.999 186.89 81.2352 186.89 76.7593C186.89 72.2427 186.401 68.4992 185.425 65.5288C184.489 62.5177 182.983 60.2594 180.908 58.7539C178.833 57.2484 176.127 56.4956 172.791 56.4956C167.867 56.4956 164.286 58.1842 162.048 61.5615C159.851 64.9388 158.752 70.0047 158.752 76.7593ZM301.453 41.481C309.184 41.481 315.023 43.4748 318.97 47.4624C322.957 51.4093 324.951 57.757 324.951 66.5054V111H306.274V71.144C306.274 66.2612 305.44 62.5788 303.772 60.0967C302.104 57.6146 299.52 56.3735 296.021 56.3735C291.097 56.3735 287.598 58.1436 285.522 61.6836C283.447 65.1829 282.41 70.2082 282.41 76.7593V111H263.794V71.144C263.794 67.8888 263.428 65.1626 262.695 62.9653C261.963 60.7681 260.844 59.1201 259.338 58.0215C257.833 56.9229 255.9 56.3735 253.54 56.3735C250.081 56.3735 247.355 57.2484 245.361 58.998C243.408 60.707 242.004 63.2502 241.15 66.6274C240.336 69.964 239.929 74.0534 239.929 78.8955V111H221.313V42.7627H235.535L238.037 51.4907H239.075C240.458 49.1307 242.188 47.2183 244.263 45.7534C246.379 44.2886 248.698 43.2103 251.221 42.5186C253.743 41.8268 256.307 41.481 258.911 41.481C263.916 41.481 268.148 42.2948 271.606 43.9224C275.106 45.55 277.791 48.0728 279.663 51.4907H281.311C283.346 47.9914 286.214 45.4482 289.917 43.8613C293.66 42.2744 297.506 41.481 301.453 41.481ZM456.726 41.481C464.457 41.481 470.296 43.4748 474.243 47.4624C478.231 51.4093 480.225 57.757 480.225 66.5054V111H461.548V71.144C461.548 66.2612 460.714 62.5788 459.045 60.0967C457.377 57.6146 454.793 56.3735 451.294 56.3735C446.37 56.3735 442.871 58.1436 440.796 61.6836C438.721 65.1829 437.683 70.2082 437.683 76.7593V111H419.067V71.144C419.067 67.8888 418.701 65.1626 417.969 62.9653C417.236 60.7681 416.117 59.1201 414.612 58.0215C413.106 56.9229 411.174 56.3735 408.813 56.3735C405.355 56.3735 402.629 57.2484 400.635 58.998C398.682 60.707 397.278 63.2502 396.423 66.6274C395.61 69.964 395.203 74.0534 395.203 78.8955V111H376.587V42.7627H390.808L393.311 51.4907H394.348C395.732 49.1307 397.461 47.2183 399.536 45.7534C401.652 44.2886 403.971 43.2103 406.494 42.5186C409.017 41.8268 411.58 41.481 414.185 41.481C419.189 41.481 423.421 42.2948 426.88 43.9224C430.379 45.55 433.065 48.0728 434.937 51.4907H436.584C438.619 47.9914 441.488 45.4482 445.19 43.8613C448.934 42.2744 452.779 41.481 456.726 41.481ZM518.005 42.7627V111H499.39V42.7627H518.005ZM508.728 16.0293C511.495 16.0293 513.875 16.6803 515.869 17.9824C517.863 19.2438 518.86 21.6242 518.86 25.1235C518.86 28.5822 517.863 30.9829 515.869 32.3257C513.875 33.6278 511.495 34.2788 508.728 34.2788C505.92 34.2788 503.52 33.6278 501.526 32.3257C499.573 30.9829 498.596 28.5822 498.596 25.1235C498.596 21.6242 499.573 19.2438 501.526 17.9824C503.52 16.6803 505.92 16.0293 508.728 16.0293ZM566.345 97.3892C568.38 97.3892 570.353 97.1857 572.266 96.7788C574.219 96.3719 576.152 95.8633 578.064 95.2529V109.108C576.07 110.003 573.588 110.736 570.618 111.305C567.688 111.916 564.473 112.221 560.974 112.221C556.905 112.221 553.243 111.57 549.988 110.268C546.773 108.925 544.23 106.626 542.358 103.371C540.527 100.075 539.612 95.4971 539.612 89.6377V56.7397H530.701V48.8662L540.955 42.6406L546.326 28.2363H558.228V42.7627H577.332V56.7397H558.228V89.6377C558.228 92.2419 558.96 94.195 560.425 95.4971C561.93 96.7585 563.904 97.3892 566.345 97.3892ZM630.005 41.481C630.941 41.481 632.019 41.542 633.24 41.6641C634.501 41.7454 635.518 41.8675 636.292 42.0303L634.888 59.4863C634.277 59.2829 633.403 59.1405 632.263 59.0591C631.165 58.937 630.208 58.876 629.395 58.876C626.994 58.876 624.654 59.1812 622.375 59.7915C620.138 60.4019 618.123 61.3988 616.333 62.7822C614.543 64.125 613.118 65.9154 612.061 68.1533C611.043 70.3506 610.535 73.0565 610.535 76.271V111H591.919V42.7627H606.018L608.765 54.2373H609.68C611.023 51.918 612.691 49.8021 614.685 47.8896C616.72 45.9365 619.019 44.3903 621.582 43.251C624.186 42.071 626.994 41.481 630.005 41.481ZM676.636 41.3589C685.791 41.3589 692.81 43.3527 697.693 47.3403C702.576 51.328 705.017 57.3908 705.017 65.5288V111H692.017L688.416 101.723H687.927C685.974 104.164 683.98 106.158 681.946 107.704C679.911 109.25 677.572 110.39 674.927 111.122C672.282 111.854 669.067 112.221 665.283 112.221C661.255 112.221 657.633 111.448 654.419 109.901C651.245 108.355 648.743 105.995 646.912 102.821C645.081 99.6068 644.165 95.5378 644.165 90.6143C644.165 83.3714 646.708 78.041 651.794 74.623C656.881 71.1644 664.51 69.252 674.683 68.8857L686.523 68.5195V65.5288C686.523 61.9481 685.588 59.3236 683.716 57.6553C681.844 55.987 679.24 55.1528 675.903 55.1528C672.607 55.1528 669.373 55.6208 666.199 56.5566C663.025 57.4925 659.851 58.6725 656.677 60.0967L650.513 47.5234C654.134 45.611 658.183 44.1055 662.659 43.0068C667.175 41.9082 671.834 41.3589 676.636 41.3589ZM686.523 79.3838L679.321 79.6279C673.299 79.7907 669.108 80.869 666.748 82.8628C664.429 84.8566 663.269 87.4811 663.269 90.7363C663.269 93.5846 664.103 95.6191 665.771 96.8398C667.44 98.0199 669.617 98.6099 672.302 98.6099C676.29 98.6099 679.647 97.4299 682.373 95.0698C685.14 92.7098 686.523 89.3529 686.523 84.999V79.3838Z" fill="#E2C044"/>
<path d="M42.9577 134.239C52.6378 149.537 66.0244 162.142 81.8758 170.886C97.7272 179.629 115.53 184.229 133.633 184.256C151.736 184.284 169.553 179.74 185.431 171.045C201.309 162.35 214.735 149.786 224.462 134.518L210.347 125.526C202.135 138.417 190.799 149.025 177.393 156.366C163.987 163.708 148.944 167.545 133.659 167.521C118.374 167.498 103.343 163.615 89.9589 156.232C76.5751 148.85 65.2725 138.207 57.0993 125.291L42.9577 134.239Z" fill="#E2C044"/>
</svg>
